<?xml version="1.0" encoding="utf-8"?>
<!-- Generator: Adobe Illustrator 16.0.0, SVG Export Plug-In . SVG Version: 6.00 Build 0)  -->
<!DOCTYPE svg PUBLIC "-//W3C//DTD SVG 1.1//EN" "http://www.w3.org/Graphics/SVG/1.1/DTD/svg11.dtd">
<svg version="1.1" id="Layer_1" xmlns="http://www.w3.org/2000/svg" xmlns:xlink="http://www.w3.org/1999/xlink" x="0px" y="0px"
	 width="278.961px" height="64.134px" viewBox="0 0 278.961 64.134" enable-background="new 0 0 278.961 64.134"
	 xml:space="preserve">
<g>
	<path fill="#43273B" d="M3.672,24.426C2.52,24.126,1.296,23.64,0,22.968v-3.96c0.936,0.769,2.082,1.386,3.438,1.854
		c1.355,0.468,2.778,0.701,4.266,0.701c1.463,0,2.568-0.299,3.312-0.899c0.744-0.6,1.116-1.452,1.116-2.556
		c0-0.744-0.216-1.355-0.648-1.836c-0.432-0.48-0.972-0.877-1.62-1.188s-1.561-0.685-2.736-1.116L6.336,13.68
		c-1.32-0.456-2.406-0.923-3.258-1.403c-0.852-0.48-1.566-1.164-2.142-2.053C0.36,9.337,0.072,8.196,0.072,6.804
		c0-1.152,0.288-2.244,0.864-3.275c0.576-1.032,1.476-1.878,2.7-2.539C4.86,0.33,6.396,0,8.244,0c1.344,0,2.466,0.126,3.366,0.378
		c0.9,0.252,1.974,0.678,3.222,1.277v3.889c-1.224-0.768-2.28-1.338-3.168-1.71C10.776,3.462,9.72,3.276,8.496,3.276
		C7.08,3.276,6,3.563,5.256,4.14C4.512,4.716,4.14,5.472,4.14,6.407c0,0.793,0.204,1.436,0.612,1.927
		C5.16,8.826,5.694,9.222,6.354,9.522c0.66,0.3,1.614,0.654,2.862,1.062c1.463,0.48,2.682,0.978,3.654,1.493
		c0.972,0.518,1.77,1.225,2.394,2.125c0.624,0.9,0.936,2.046,0.936,3.438c0,1.32-0.294,2.526-0.882,3.618
		c-0.588,1.093-1.5,1.968-2.736,2.628c-1.236,0.66-2.778,0.99-4.626,0.99C6.251,24.876,4.824,24.726,3.672,24.426z"/>
	<path fill="#43273B" d="M30.06,21.743c-1.92-2.088-2.88-5.184-2.88-9.287c0-4.08,0.948-7.17,2.844-9.27
		c1.896-2.101,4.667-3.15,8.316-3.15c3.624,0,6.396,1.038,8.316,3.113c1.92,2.076,2.88,5.179,2.88,9.307
		c0,4.08-0.954,7.17-2.862,9.27c-1.908,2.101-4.686,3.15-8.334,3.15C34.74,24.876,31.98,23.832,30.06,21.743z M43.722,19.278
		c1.14-1.428,1.71-3.714,1.71-6.858c0-3.12-0.576-5.388-1.728-6.804c-1.152-1.416-2.94-2.125-5.364-2.125
		c-2.424,0-4.212,0.709-5.364,2.125c-1.152,1.416-1.728,3.695-1.728,6.84s0.576,5.424,1.728,6.84
		c1.152,1.416,2.939,2.124,5.364,2.124C40.788,21.42,42.582,20.706,43.722,19.278z"/>
	<path fill="#43273B" d="M61.488,0.432h3.996V21.06h11.484v3.385h-15.48V0.432z"/>
	<path fill="#43273B" d="M125.783,0.432v24.013h-3.564L109.223,6.588v17.856h-3.78V0.432h3.816l12.744,17.64V0.432H125.783z"/>
	<path fill="#43273B" d="M138.671,0.432h15.732V3.78h-11.736v6.947h10.225v3.385H142.63v6.983h11.772v3.349h-15.732V0.432z"/>
	<path fill="#43273B" d="M190.474,0.432v24.013h-3.96V6.12l-8.027,11.088l-7.668-11.016v18.252h-3.853V0.432h4.141l7.56,11.16
		l7.74-11.16H190.474z"/>
	<path fill="#43273B" d="M203.362,0.432h15.732V3.78h-11.736v6.947h10.225v3.385h-10.261v6.983h11.772v3.349h-15.732V0.432z"/>
	<path fill="#43273B" d="M237.346,3.78h-7.74V0.432h19.476V3.78h-7.775v20.664h-3.96V3.78z"/>
	<path fill="#43273B" d="M259.917,0.432h3.96v10.332h11.088V0.432h3.996v24.013h-3.996V14.22h-11.088v10.225h-3.96V0.432z"/>
	<path fill="#43273B" d="M2.565,59.118c-0.878-0.975-1.317-2.426-1.317-4.352c0-1.928,0.439-3.377,1.317-4.354
		c0.878-0.975,2.19-1.461,3.936-1.461c1.156,0,2.306,0.277,3.451,0.832v1.174c-1.065-0.566-2.17-0.85-3.315-0.85
		c-1.428,0-2.471,0.373-3.128,1.121s-0.986,1.928-0.986,3.537c0,1.619,0.326,2.801,0.978,3.543c0.651,0.744,1.697,1.115,3.137,1.115
		c1.201,0,2.306-0.279,3.315-0.834v1.174c-1.156,0.543-2.307,0.814-3.451,0.814C4.755,60.579,3.443,60.093,2.565,59.118z"/>
	<path fill="#43273B" d="M19.659,53.065c0.601,0.84,0.89,1.955,0.867,3.35h-6.188c0,1.02,0.238,1.803,0.714,2.346
		c0.476,0.545,1.156,0.816,2.04,0.816c1.133,0,2.102-0.244,2.907-0.73v1.258c-0.827,0.396-1.819,0.594-2.975,0.594
		c-1.235,0-2.199-0.383-2.89-1.146c-0.691-0.766-1.037-1.885-1.037-3.357c0-1.439,0.326-2.531,0.978-3.273
		c0.651-0.742,1.566-1.113,2.746-1.113C18.112,51.808,19.058,52.228,19.659,53.065z M15.12,53.448
		c-0.385,0.346-0.629,0.961-0.731,1.844h4.845c-0.057-0.793-0.28-1.385-0.671-1.775s-0.972-0.586-1.742-0.586
		C16.072,52.931,15.505,53.103,15.12,53.448z"/>
	<path fill="#43273B" d="M24.095,52.642c0.431-0.182,1-0.367,1.708-0.553c0.708-0.188,1.442-0.281,2.202-0.281
		c0.113,0,0.294,0.035,0.544,0.102v1.088c-0.272-0.033-0.544-0.051-0.816-0.051c-0.374,0-0.72,0.023-1.037,0.068
		s-0.776,0.119-1.377,0.221v7.209h-1.224V52.642z"/>
	<path fill="#43273B" d="M32.918,60.011c-0.397-0.381-0.595-0.922-0.595-1.623v-5.305h-1.479V51.96h1.479v-2.396h1.224v2.396h2.193
		v1.123h-2.193v4.912c0,0.5,0.079,0.861,0.238,1.088c0.158,0.229,0.453,0.342,0.884,0.342c0.419,0,0.776-0.068,1.071-0.205v1.156
		c-0.159,0.057-0.36,0.105-0.604,0.145s-0.473,0.059-0.688,0.059C33.825,60.579,33.315,60.39,32.918,60.011z"/>
	<path fill="#43273B" d="M39.225,49.104h1.36v1.344h-1.36V49.104z M39.293,51.96h1.224v8.484h-1.224V51.96z"/>
	<path fill="#43273B" d="M45.362,53.083H43.9V51.96h1.462v-0.459c0-0.939,0.164-1.639,0.493-2.098
		c0.329-0.461,0.683-0.742,1.063-0.852c0.38-0.107,0.774-0.16,1.182-0.16c0.306,0,0.578,0.033,0.816,0.102v1.088
		c-0.227-0.045-0.431-0.068-0.612-0.068c-0.363,0-0.657,0.033-0.884,0.102c-0.227,0.068-0.422,0.244-0.587,0.527
		c-0.164,0.283-0.246,0.73-0.246,1.344v0.475h2.329v1.123h-2.329v7.361h-1.224V53.083z M50.598,49.104h1.36v1.344h-1.36V49.104z
		 M50.666,51.96h1.224v8.484h-1.224V51.96z"/>
	<path fill="#43273B" d="M62.09,53.065c0.601,0.84,0.89,1.955,0.867,3.35h-6.188c0,1.02,0.238,1.803,0.714,2.346
		c0.476,0.545,1.156,0.816,2.04,0.816c1.133,0,2.102-0.244,2.907-0.73v1.258c-0.827,0.396-1.819,0.594-2.975,0.594
		c-1.235,0-2.199-0.383-2.89-1.146c-0.691-0.766-1.037-1.885-1.037-3.357c0-1.439,0.326-2.531,0.978-3.273
		c0.651-0.742,1.566-1.113,2.746-1.113C60.543,51.808,61.489,52.228,62.09,53.065z M57.551,53.448
		c-0.385,0.346-0.629,0.961-0.731,1.844h4.845c-0.057-0.793-0.28-1.385-0.671-1.775s-0.972-0.586-1.742-0.586
		C58.503,52.931,57.936,53.103,57.551,53.448z"/>
	<path fill="#43273B" d="M73.48,48.374v10.607c0,0.578-0.366,1.01-1.097,1.293s-1.527,0.424-2.388,0.424
		c-1.043,0-1.95-0.336-2.72-1.012c-0.771-0.674-1.162-1.871-1.173-3.594c0-1.338,0.326-2.383,0.978-3.137
		c0.651-0.754,1.618-1.131,2.898-1.131c0.294,0,0.66,0.049,1.097,0.145c0.436,0.096,0.83,0.213,1.181,0.348v-3.943H73.48z
		 M72.256,53.542c-0.34-0.193-0.711-0.34-1.113-0.441c-0.402-0.104-0.791-0.154-1.165-0.154c-0.884,0-1.536,0.281-1.955,0.842
		s-0.629,1.33-0.629,2.305c0,1.064,0.192,1.912,0.578,2.541c0.385,0.629,1.082,0.943,2.091,0.943c0.601,0,1.116-0.068,1.547-0.205
		c0.431-0.135,0.646-0.305,0.646-0.51V53.542z"/>
	<path fill="#43273B" d="M86.671,50.261h-4.012v-1.156h9.231v1.156h-3.995v10.184h-1.224V50.261z"/>
	<path fill="#43273B" d="M93.675,52.642c0.431-0.182,1-0.367,1.708-0.553c0.708-0.188,1.442-0.281,2.202-0.281
		c0.113,0,0.294,0.035,0.544,0.102v1.088c-0.272-0.033-0.544-0.051-0.816-0.051c-0.374,0-0.72,0.023-1.037,0.068
		s-0.776,0.119-1.377,0.221v7.209h-1.224V52.642z"/>
	<path fill="#43273B" d="M107.233,52.505c0.55,0.465,0.825,1.139,0.825,2.023v4.113c0,0.816-0.334,1.363-1.003,1.641
		c-0.669,0.277-1.593,0.416-2.771,0.416c-0.896,0-1.664-0.197-2.304-0.594c-0.641-0.396-0.96-1.061-0.96-1.99
		c0-1.008,0.277-1.742,0.833-2.201c0.555-0.459,1.32-0.688,2.295-0.688c1.099,0,1.989,0.197,2.669,0.594v-1.002
		c0-1.27-0.742-1.904-2.227-1.904c-0.487,0-0.98,0.068-1.479,0.203c-0.499,0.137-0.918,0.34-1.258,0.613v-1.225
		c0.34-0.215,0.802-0.385,1.385-0.51c0.584-0.125,1.165-0.188,1.743-0.188C105.933,51.808,106.683,52.04,107.233,52.505z
		 M106.29,59.433c0.351-0.119,0.527-0.359,0.527-0.723v-1.904c-0.306-0.146-0.663-0.264-1.071-0.348
		c-0.408-0.086-0.833-0.129-1.275-0.129c-0.714,0-1.264,0.137-1.649,0.408c-0.385,0.273-0.578,0.67-0.578,1.191
		c0,0.588,0.227,1.016,0.68,1.283c0.453,0.266,1.003,0.398,1.649,0.398C105.366,59.61,105.938,59.552,106.29,59.433z"/>
	<path fill="#43273B" d="M115.639,51.808c1.19,0,2.049,0.262,2.576,0.783c0.527,0.52,0.791,1.297,0.791,2.328v5.525h-1.224v-5.525
		c0-1.338-0.759-2.006-2.278-2.006c-0.703,0-1.445,0.113-2.227,0.34v7.191h-1.224v-7.803
		C113.151,52.085,114.347,51.808,115.639,51.808z"/>
	<path fill="#43273B" d="M123.918,60.528c-0.408-0.113-0.855-0.295-1.343-0.543v-1.293c0.578,0.33,1.051,0.559,1.419,0.689
		c0.368,0.131,0.808,0.195,1.317,0.195c0.567,0,1.029-0.125,1.386-0.375c0.357-0.248,0.535-0.572,0.535-0.969
		c0-0.352-0.107-0.613-0.323-0.791c-0.215-0.174-0.556-0.354-1.02-0.535l-0.442-0.186c-0.646-0.182-1.147-0.346-1.504-0.494
		c-0.357-0.146-0.669-0.379-0.935-0.697c-0.267-0.316-0.399-0.748-0.399-1.291c0-0.545,0.141-0.998,0.425-1.361
		c0.283-0.361,0.651-0.631,1.105-0.807c0.453-0.176,0.929-0.264,1.428-0.264c0.454,0,0.836,0.051,1.148,0.152
		c0.312,0.104,0.739,0.273,1.283,0.512v1.223c-0.567-0.283-1-0.48-1.3-0.594c-0.301-0.113-0.655-0.17-1.063-0.17
		c-0.499,0-0.924,0.098-1.275,0.297c-0.352,0.197-0.527,0.479-0.527,0.842c0,0.295,0.088,0.535,0.264,0.723
		c0.175,0.186,0.396,0.334,0.663,0.441c0.266,0.107,0.626,0.225,1.08,0.348c0.566,0.182,1.017,0.346,1.351,0.494
		c0.334,0.146,0.629,0.383,0.884,0.705s0.382,0.756,0.382,1.301c0,0.578-0.147,1.063-0.442,1.453
		c-0.295,0.391-0.677,0.684-1.147,0.875c-0.471,0.193-0.96,0.289-1.471,0.289C124.819,60.698,124.326,60.642,123.918,60.528z"/>
	<path fill="#43273B" d="M132.027,60.444V48.731h1.224v11.713H132.027z"/>
	<path fill="#43273B" d="M143.12,52.505c0.549,0.465,0.824,1.139,0.824,2.023v4.113c0,0.816-0.334,1.363-1.004,1.641
		c-0.668,0.277-1.592,0.416-2.77,0.416c-0.896,0-1.664-0.197-2.304-0.594c-0.641-0.396-0.96-1.061-0.96-1.99
		c0-1.008,0.277-1.742,0.833-2.201c0.555-0.459,1.32-0.688,2.295-0.688c1.1,0,1.988,0.197,2.67,0.594v-1.002
		c0-1.27-0.744-1.904-2.229-1.904c-0.487,0-0.98,0.068-1.479,0.203c-0.499,0.137-0.918,0.34-1.258,0.613v-1.225
		c0.34-0.215,0.802-0.385,1.385-0.51c0.584-0.125,1.165-0.188,1.743-0.188C141.819,51.808,142.569,52.04,143.12,52.505z
		 M142.176,59.433c0.352-0.119,0.527-0.359,0.527-0.723v-1.904c-0.307-0.146-0.664-0.264-1.072-0.348
		c-0.408-0.086-0.832-0.129-1.274-0.129c-0.714,0-1.264,0.137-1.649,0.408c-0.385,0.273-0.578,0.67-0.578,1.191
		c0,0.588,0.227,1.016,0.68,1.283c0.453,0.266,1.003,0.398,1.65,0.398C141.252,59.61,141.825,59.552,142.176,59.433z"/>
	<path fill="#43273B" d="M149.078,60.011c-0.396-0.381-0.595-0.922-0.595-1.623v-5.305h-1.479V51.96h1.479v-2.396h1.224v2.396h2.193
		v1.123h-2.193v4.912c0,0.5,0.079,0.861,0.238,1.088c0.158,0.229,0.453,0.342,0.884,0.342c0.419,0,0.776-0.068,1.071-0.205v1.156
		c-0.159,0.057-0.36,0.105-0.604,0.145c-0.244,0.039-0.474,0.059-0.688,0.059C149.984,60.579,149.474,60.39,149.078,60.011z"/>
	<path fill="#43273B" d="M155.936,59.542c-0.651-0.77-0.978-1.875-0.978-3.314c0-1.461,0.332-2.564,0.995-3.307
		s1.623-1.113,2.881-1.113c1.326,0,2.313,0.395,2.958,1.182c0.646,0.787,0.97,1.867,0.97,3.238c0,1.406-0.34,2.502-1.021,3.289
		c-0.68,0.789-1.638,1.182-2.873,1.182C157.566,60.698,156.588,60.313,155.936,59.542z M161.538,56.228
		c0-1.064-0.21-1.881-0.629-2.447s-1.104-0.85-2.057-0.85c-1.779,0-2.669,1.098-2.669,3.297c0,2.232,0.89,3.35,2.669,3.35
		C160.642,59.577,161.538,58.46,161.538,56.228z"/>
	<path fill="#43273B" d="M166.333,52.642c0.431-0.182,1-0.367,1.708-0.553c0.708-0.188,1.442-0.281,2.201-0.281
		c0.113,0,0.295,0.035,0.545,0.102v1.088c-0.272-0.033-0.545-0.051-0.816-0.051c-0.374,0-0.72,0.023-1.037,0.068
		s-0.776,0.119-1.377,0.221v7.209h-1.224V52.642z"/>
	<path fill="#43273B" d="M173.897,59.017h1.395l-1.428,3.332h-1.225L173.897,59.017z"/>
	<path fill="#43273B" d="M185.627,49.104h1.224v11.34h-1.224V49.104z"/>
	<path fill="#43273B" d="M194.518,51.808c1.189,0,2.048,0.262,2.575,0.783c0.527,0.52,0.791,1.297,0.791,2.328v5.525h-1.225v-5.525
		c0-1.338-0.76-2.006-2.278-2.006c-0.702,0-1.444,0.113-2.227,0.34v7.191h-1.224v-7.803
		C192.03,52.085,193.226,51.808,194.518,51.808z"/>
	<path fill="#43273B" d="M203.017,60.011c-0.396-0.381-0.595-0.922-0.595-1.623v-5.305h-1.479V51.96h1.479v-2.396h1.224v2.396h2.193
		v1.123h-2.193v4.912c0,0.5,0.079,0.861,0.238,1.088c0.158,0.229,0.453,0.342,0.884,0.342c0.419,0,0.776-0.068,1.071-0.205v1.156
		c-0.159,0.057-0.36,0.105-0.604,0.145c-0.244,0.039-0.474,0.059-0.688,0.059C203.923,60.579,203.414,60.39,203.017,60.011z"/>
	<path fill="#43273B" d="M215.461,53.065c0.601,0.84,0.89,1.955,0.867,3.35h-6.188c0,1.02,0.238,1.803,0.714,2.346
		c0.477,0.545,1.156,0.816,2.04,0.816c1.134,0,2.103-0.244,2.907-0.73v1.258c-0.827,0.396-1.819,0.594-2.975,0.594
		c-1.235,0-2.199-0.383-2.891-1.146c-0.691-0.766-1.037-1.885-1.037-3.357c0-1.439,0.326-2.531,0.978-3.273
		c0.652-0.742,1.567-1.113,2.746-1.113C213.915,51.808,214.861,52.228,215.461,53.065z M210.922,53.448
		c-0.386,0.346-0.629,0.961-0.731,1.844h4.846c-0.057-0.793-0.281-1.385-0.672-1.775s-0.972-0.586-1.742-0.586
		C211.875,52.931,211.307,53.103,210.922,53.448z"/>
	<path fill="#43273B" d="M219.899,52.642c0.431-0.182,1-0.367,1.708-0.553c0.708-0.188,1.442-0.281,2.201-0.281
		c0.113,0,0.295,0.035,0.545,0.102v1.088c-0.272-0.033-0.545-0.051-0.816-0.051c-0.374,0-0.72,0.023-1.037,0.068
		s-0.776,0.119-1.377,0.221v7.209h-1.224V52.642z"/>
	<path fill="#43273B" d="M233.838,52.905c0.748,0.73,1.122,1.9,1.122,3.51c0,1.326-0.352,2.369-1.055,3.127
		c-0.702,0.76-1.699,1.141-2.991,1.141c-0.295,0-0.635-0.047-1.021-0.137c-0.386-0.092-0.748-0.209-1.088-0.357v3.945h-1.224V53.491
		c0-0.623,0.343-1.057,1.028-1.301s1.487-0.371,2.405-0.383C232.149,51.808,233.09,52.173,233.838,52.905z M232.962,58.71
		c0.471-0.566,0.706-1.332,0.706-2.295c0-1.064-0.193-1.912-0.578-2.541c-0.386-0.629-1.083-0.943-2.091-0.943
		c-0.612,0-1.131,0.07-1.556,0.211c-0.425,0.143-0.638,0.332-0.638,0.57v5.254c0.68,0.396,1.383,0.594,2.108,0.594
		C231.809,59.56,232.493,59.276,232.962,58.71z"/>
	<path fill="#43273B" d="M238.531,52.642c0.431-0.182,1-0.367,1.708-0.553c0.708-0.188,1.442-0.281,2.201-0.281
		c0.113,0,0.295,0.035,0.545,0.102v1.088c-0.272-0.033-0.545-0.051-0.816-0.051c-0.374,0-0.72,0.023-1.037,0.068
		s-0.776,0.119-1.377,0.221v7.209h-1.224V52.642z"/>
	<path fill="#43273B" d="M251.756,53.065c0.601,0.84,0.89,1.955,0.867,3.35h-6.188c0,1.02,0.238,1.803,0.714,2.346
		c0.477,0.545,1.156,0.816,2.04,0.816c1.134,0,2.103-0.244,2.907-0.73v1.258c-0.827,0.396-1.819,0.594-2.975,0.594
		c-1.235,0-2.199-0.383-2.891-1.146c-0.691-0.766-1.037-1.885-1.037-3.357c0-1.439,0.326-2.531,0.978-3.273
		c0.652-0.742,1.567-1.113,2.746-1.113C250.209,51.808,251.156,52.228,251.756,53.065z M247.217,53.448
		c-0.386,0.346-0.629,0.961-0.731,1.844h4.846c-0.057-0.793-0.281-1.385-0.672-1.775s-0.972-0.586-1.742-0.586
		C248.169,52.931,247.602,53.103,247.217,53.448z"/>
	<path fill="#43273B" d="M257.333,60.011c-0.396-0.381-0.595-0.922-0.595-1.623v-5.305h-1.479V51.96h1.479v-2.396h1.224v2.396h2.193
		v1.123h-2.193v4.912c0,0.5,0.079,0.861,0.238,1.088c0.158,0.229,0.453,0.342,0.884,0.342c0.419,0,0.776-0.068,1.071-0.205v1.156
		c-0.159,0.057-0.36,0.105-0.604,0.145c-0.244,0.039-0.474,0.059-0.688,0.059C258.239,60.579,257.729,60.39,257.333,60.011z"/>
	<path fill="#43273B" d="M269.776,53.065c0.601,0.84,0.89,1.955,0.867,3.35h-6.188c0,1.02,0.238,1.803,0.714,2.346
		c0.477,0.545,1.156,0.816,2.04,0.816c1.134,0,2.103-0.244,2.907-0.73v1.258c-0.827,0.396-1.819,0.594-2.975,0.594
		c-1.235,0-2.199-0.383-2.891-1.146c-0.691-0.766-1.037-1.885-1.037-3.357c0-1.439,0.326-2.531,0.978-3.273
		c0.652-0.742,1.567-1.113,2.746-1.113C268.229,51.808,269.175,52.228,269.776,53.065z M265.237,53.448
		c-0.386,0.346-0.629,0.961-0.731,1.844h4.846c-0.057-0.793-0.281-1.385-0.672-1.775s-0.972-0.586-1.742-0.586
		C266.189,52.931,265.622,53.103,265.237,53.448z"/>
	<path fill="#43273B" d="M274.213,52.642c0.431-0.182,1-0.367,1.708-0.553c0.708-0.188,1.442-0.281,2.201-0.281
		c0.113,0,0.295,0.035,0.545,0.102v1.088c-0.272-0.033-0.545-0.051-0.816-0.051c-0.374,0-0.72,0.023-1.037,0.068
		s-0.776,0.119-1.377,0.221v7.209h-1.224V52.642z"/>
</g>
</svg>
